<?xml version="1.0" encoding="UTF-8" standalone="no"?>
<svg
   class="svg-icon"
   style="width: 1em;height: 1em;vertical-align: middle;fill: currentColor;overflow: hidden;"
   viewBox="0 0 1024 1024"
   version="1.1"
   id="svg3"
   sodipodi:docname="robot.svg"
   inkscape:version="1.4.3 (0d15f75, 2025-12-25)"
   xmlns:inkscape="http://www.inkscape.org/namespaces/inkscape"
   xmlns:sodipodi="http://sodipodi.sourceforge.net/DTD/sodipodi-0.dtd"
   xmlns="http://www.w3.org/2000/svg"
   xmlns:svg="http://www.w3.org/2000/svg">
  <defs
     id="defs3" />
  <sodipodi:namedview
     id="namedview3"
     pagecolor="#ffffff"
     bordercolor="#000000"
     borderopacity="0.25"
     inkscape:showpageshadow="2"
     inkscape:pageopacity="0.0"
     inkscape:pagecheckerboard="0"
     inkscape:deskcolor="#d1d1d1"
     inkscape:zoom="0.2461089"
     inkscape:cx="132.05536"
     inkscape:cy="412.41906"
     inkscape:window-width="1728"
     inkscape:window-height="1084"
     inkscape:window-x="0"
     inkscape:window-y="33"
     inkscape:window-maximized="0"
     inkscape:current-layer="svg3" />
  <path
     d="M 707.03244,961.71187 H 314.8755 c -83.54649,0 -151.52035,-69.23046 -151.52035,-154.32143 V 425.81249 c 0,-85.09095 67.97386,-154.32143 151.52035,-154.32143 h 392.15694 c 83.54647,0 151.52034,69.23048 151.52034,154.32143 v 381.57795 c 0,85.09097 -67.97387,154.32143 -151.52034,154.32143 z M 314.8755,374.87369 c -27.62149,0 -50.12789,22.92246 -50.12789,51.05457 v 381.57796 c 0,28.13211 22.5064,51.05457 50.12789,51.05457 h 392.15694 c 27.62148,0 50.12787,-22.92246 50.12787,-51.05457 V 425.81249 c 0,-28.13212 -22.50639,-51.05458 -50.12787,-51.05458 H 314.8755 Z m 654.2769,398.0173 c -27.96249,0 -50.69623,-23.15401 -50.69623,-51.63343 V 512.06115 c 0,-28.47942 22.73374,-51.63343 50.69623,-51.63343 27.96249,0 50.6962,23.15401 50.6962,51.63343 v 209.19641 c 0,28.59519 -22.73371,51.63343 -50.6962,51.63343 z m -912.3048,0 c -27.962495,0 -50.69623,-23.15401 -50.69623,-51.63343 V 512.06115 c 0,-28.47942 22.733735,-51.63343 50.69623,-51.63343 27.962495,0 50.69623,23.15401 50.69623,51.63343 v 209.19641 c 0,28.59519 -22.620067,51.63343 -50.69623,51.63343 z"
     fill="#333333"
     id="path1"
     style="stroke-width:1.14714" />
  <path
     d="m 510.95397,374.87369 c -27.9625,0 -50.69624,-23.15401 -50.69624,-51.63343 V 170.53962 c 0,-28.47943 22.73374,-51.63343 50.69624,-51.63343 27.96248,0 50.69622,23.154 50.69622,51.63343 v 152.70064 c 0,28.47942 -22.73374,51.63343 -50.69622,51.63343 z"
     fill="#333333"
     id="path2"
     style="stroke-width:1.14714" />
  <path
     d="m 510.95397,213.72182 c -55.925,0 -101.39246,-46.308 -101.39246,-103.26684 0,-56.958848 45.46746,-103.266852 101.39246,-103.266852 55.92498,0 101.39246,46.308004 101.39246,103.266852 0,56.95884 -45.46748,103.26684 -101.39246,103.26684 z m 0,-103.26684 h 0.22733 z m 0,0 h 0.22733 z m 0,0 h 0.22733 z m 0,0 h 0.22733 z m 0,0 z m 0,0 h 0.22733 z m 0,0 h 0.22733 z m 0,-0.11577 h 0.22733 z m -127.53626,565.1892 c -31.9409,0 -57.85735,-26.39557 -57.85735,-58.92694 0,-32.53138 25.91645,-58.92694 57.85735,-58.92694 31.9409,0 57.85735,26.39556 57.85735,58.92694 0,32.53137 -25.91645,58.92694 -57.85735,58.92694 z m 254.50417,0 c -31.9409,0 -57.85737,-26.39557 -57.85737,-58.92694 0,-32.53138 25.91647,-58.92694 57.85737,-58.92694 31.9409,0 57.85735,26.39556 57.85735,58.92694 0,32.53137 -25.91645,58.92694 -57.85735,58.92694 z"
     fill="#333333"
     id="path3"
     style="stroke-width:1.14714" />
</svg>
